<mxfile host="app.diagrams.net" agent="Mozilla/5.0 (Windows NT 10.0; Win64; x64) AppleWebKit/537.36 (KHTML, like Gecko) Chrome/134.0.0.0 Safari/537.36 Edg/134.0.0.0" version="26.1.1">
  <diagram name="第 1 页" id="idI8BjdUR7AzjI0of0rd">
    <mxGraphModel dx="1042" dy="644" grid="0" gridSize="10" guides="1" tooltips="1" connect="1" arrows="1" fold="1" page="0" pageScale="1" pageWidth="827" pageHeight="1169" math="0" shadow="0">
      <root>
        <mxCell id="0" />
        <mxCell id="1" parent="0" />
        <mxCell id="EywG77JPj92lvfZwLY3Q-4" value="" style="edgeStyle=none;curved=1;rounded=0;orthogonalLoop=1;jettySize=auto;html=1;fontSize=12;startSize=8;endSize=8;" edge="1" parent="1" source="EywG77JPj92lvfZwLY3Q-1" target="EywG77JPj92lvfZwLY3Q-3">
          <mxGeometry relative="1" as="geometry" />
        </mxCell>
        <mxCell id="EywG77JPj92lvfZwLY3Q-1" value="User types a character on PC" style="rounded=1;whiteSpace=wrap;html=1;" vertex="1" parent="1">
          <mxGeometry x="90" y="199" width="120" height="60" as="geometry" />
        </mxCell>
        <mxCell id="EywG77JPj92lvfZwLY3Q-2" value="UART Receive Program Flow Diagram" style="text;html=1;align=center;verticalAlign=middle;whiteSpace=wrap;rounded=0;" vertex="1" parent="1">
          <mxGeometry x="80" y="120" width="140" height="30" as="geometry" />
        </mxCell>
        <mxCell id="EywG77JPj92lvfZwLY3Q-6" value="" style="edgeStyle=none;curved=1;rounded=0;orthogonalLoop=1;jettySize=auto;html=1;fontSize=12;startSize=8;endSize=8;" edge="1" parent="1" source="EywG77JPj92lvfZwLY3Q-3" target="EywG77JPj92lvfZwLY3Q-5">
          <mxGeometry relative="1" as="geometry" />
        </mxCell>
        <mxCell id="EywG77JPj92lvfZwLY3Q-3" value="UART Hardware(on MCu)receives the bit stream" style="whiteSpace=wrap;html=1;rounded=1;" vertex="1" parent="1">
          <mxGeometry x="65" y="292" width="170" height="60" as="geometry" />
        </mxCell>
        <mxCell id="EywG77JPj92lvfZwLY3Q-8" value="" style="edgeStyle=none;curved=1;rounded=0;orthogonalLoop=1;jettySize=auto;html=1;fontSize=12;startSize=8;endSize=8;" edge="1" parent="1" source="EywG77JPj92lvfZwLY3Q-5" target="EywG77JPj92lvfZwLY3Q-7">
          <mxGeometry relative="1" as="geometry" />
        </mxCell>
        <mxCell id="EywG77JPj92lvfZwLY3Q-5" value="UART Interrupt triggered when character fully received" style="whiteSpace=wrap;html=1;rounded=1;" vertex="1" parent="1">
          <mxGeometry x="65" y="386" width="170" height="60" as="geometry" />
        </mxCell>
        <mxCell id="EywG77JPj92lvfZwLY3Q-10" value="" style="edgeStyle=none;curved=1;rounded=0;orthogonalLoop=1;jettySize=auto;html=1;fontSize=12;startSize=8;endSize=8;" edge="1" parent="1" source="EywG77JPj92lvfZwLY3Q-7" target="EywG77JPj92lvfZwLY3Q-9">
          <mxGeometry relative="1" as="geometry" />
        </mxCell>
        <mxCell id="EywG77JPj92lvfZwLY3Q-7" value="UART Driver ISR processes the interrupt" style="whiteSpace=wrap;html=1;rounded=1;" vertex="1" parent="1">
          <mxGeometry x="65" y="479" width="170" height="60" as="geometry" />
        </mxCell>
        <mxCell id="EywG77JPj92lvfZwLY3Q-12" value="" style="edgeStyle=none;curved=1;rounded=0;orthogonalLoop=1;jettySize=auto;html=1;fontSize=12;startSize=8;endSize=8;" edge="1" parent="1" source="EywG77JPj92lvfZwLY3Q-9" target="EywG77JPj92lvfZwLY3Q-11">
          <mxGeometry relative="1" as="geometry" />
        </mxCell>
        <mxCell id="EywG77JPj92lvfZwLY3Q-9" value="usart_read_callback() function is called" style="whiteSpace=wrap;html=1;rounded=1;" vertex="1" parent="1">
          <mxGeometry x="65" y="573" width="170" height="60" as="geometry" />
        </mxCell>
        <mxCell id="EywG77JPj92lvfZwLY3Q-14" value="" style="edgeStyle=none;curved=1;rounded=0;orthogonalLoop=1;jettySize=auto;html=1;fontSize=12;startSize=8;endSize=8;" edge="1" parent="1" source="EywG77JPj92lvfZwLY3Q-11" target="EywG77JPj92lvfZwLY3Q-13">
          <mxGeometry relative="1" as="geometry" />
        </mxCell>
        <mxCell id="EywG77JPj92lvfZwLY3Q-11" value="Character stored in latestRx variable" style="whiteSpace=wrap;html=1;rounded=1;" vertex="1" parent="1">
          <mxGeometry x="90" y="666" width="120" height="60" as="geometry" />
        </mxCell>
        <mxCell id="EywG77JPj92lvfZwLY3Q-16" value="" style="edgeStyle=none;curved=1;rounded=0;orthogonalLoop=1;jettySize=auto;html=1;fontSize=12;startSize=8;endSize=8;" edge="1" parent="1" source="EywG77JPj92lvfZwLY3Q-13" target="EywG77JPj92lvfZwLY3Q-15">
          <mxGeometry relative="1" as="geometry" />
        </mxCell>
        <mxCell id="EywG77JPj92lvfZwLY3Q-13" value="circular_buf_put(cbufRx, latestRx) stores character in circular buffer" style="whiteSpace=wrap;html=1;rounded=1;" vertex="1" parent="1">
          <mxGeometry x="60" y="760" width="180" height="60" as="geometry" />
        </mxCell>
        <mxCell id="EywG77JPj92lvfZwLY3Q-18" value="" style="edgeStyle=none;curved=1;rounded=0;orthogonalLoop=1;jettySize=auto;html=1;fontSize=12;startSize=8;endSize=8;" edge="1" parent="1" source="EywG77JPj92lvfZwLY3Q-15" target="EywG77JPj92lvfZwLY3Q-17">
          <mxGeometry relative="1" as="geometry" />
        </mxCell>
        <mxCell id="EywG77JPj92lvfZwLY3Q-15" value="xQueueSendFromISR() sends character to CLI queue" style="whiteSpace=wrap;html=1;rounded=1;" vertex="1" parent="1">
          <mxGeometry x="60" y="853" width="180" height="60" as="geometry" />
        </mxCell>
        <mxCell id="EywG77JPj92lvfZwLY3Q-20" value="" style="edgeStyle=none;curved=1;rounded=0;orthogonalLoop=1;jettySize=auto;html=1;fontSize=12;startSize=8;endSize=8;" edge="1" parent="1" source="EywG77JPj92lvfZwLY3Q-17" target="EywG77JPj92lvfZwLY3Q-19">
          <mxGeometry relative="1" as="geometry" />
        </mxCell>
        <mxCell id="EywG77JPj92lvfZwLY3Q-17" value="usart_read_buffer_job() starts a new asynchronous read" style="whiteSpace=wrap;html=1;rounded=1;" vertex="1" parent="1">
          <mxGeometry x="55" y="947" width="190" height="60" as="geometry" />
        </mxCell>
        <mxCell id="EywG77JPj92lvfZwLY3Q-19" value="Character now stored in cbufRx, ready for application processing" style="whiteSpace=wrap;html=1;rounded=1;" vertex="1" parent="1">
          <mxGeometry x="55" y="1040" width="190" height="60" as="geometry" />
        </mxCell>
      </root>
    </mxGraphModel>
  </diagram>
</mxfile>
